<svg width="26" height="18" viewBox="0 0 26 18" fill="none" xmlns="http://www.w3.org/2000/svg">
  <path id="Icon" opacity="0.4" d="M13.6667 17.5C13.2083 17.5 12.816 17.3368 12.4896 17.0104C12.1632 16.684 12 16.2917 12 15.8333V7.5C12 7.04167 12.1632 6.64931 12.4896 6.32292C12.816 5.99653 13.2083 5.83333 13.6667 5.83333H14.5V4.16667C14.5 3.01389 14.9062 2.03125 15.7188 1.21875C16.5312 0.40625 17.5139 0 18.6667 0C19.8194 0 20.8021 0.40625 21.6146 1.21875C22.4271 2.03125 22.8333 3.01389 22.8333 4.16667V5.83333H23.6667C24.125 5.83333 24.5174 5.99653 24.8438 6.32292C25.1701 6.64931 25.3333 7.04167 25.3333 7.5V15.8333C25.3333 16.2917 25.1701 16.684 24.8438 17.0104C24.5174 17.3368 24.125 17.5 23.6667 17.5H13.6667ZM13.6667 15.8333H23.6667V7.5H13.6667V15.8333ZM18.6667 13.3333C19.125 13.3333 19.5174 13.1701 19.8438 12.8438C20.1701 12.5174 20.3333 12.125 20.3333 11.6667C20.3333 11.2083 20.1701 10.816 19.8438 10.4896C19.5174 10.1632 19.125 10 18.6667 10C18.2083 10 17.816 10.1632 17.4896 10.4896C17.1632 10.816 17 11.2083 17 11.6667C17 12.125 17.1632 12.5174 17.4896 12.8438C17.816 13.1701 18.2083 13.3333 18.6667 13.3333ZM16.1667 5.83333H21.1667V4.16667C21.1667 3.47222 20.9236 2.88194 20.4375 2.39583C19.9514 1.90972 19.3611 1.66667 18.6667 1.66667C17.9722 1.66667 17.3819 1.90972 16.8958 2.39583C16.4097 2.88194 16.1667 3.47222 16.1667 4.16667V5.83333ZM13.6667 15.8333V7.5V15.8333Z" fill="#C3C6D7"/>
</svg>
