<svg width="26" height="14" viewBox="0 0 26 14" fill="none" xmlns="http://www.w3.org/2000/svg">
  <path id="Icon" opacity="0.4" d="M18.6667 6.66667C17.75 6.66667 16.9653 6.34028 16.3125 5.6875C15.6597 5.03472 15.3333 4.25 15.3333 3.33333C15.3333 2.41667 15.6597 1.63194 16.3125 0.979167C16.9653 0.326389 17.75 0 18.6667 0C19.5833 0 20.3681 0.326389 21.0208 0.979167C21.6736 1.63194 22 2.41667 22 3.33333C22 4.25 21.6736 5.03472 21.0208 5.6875C20.3681 6.34028 19.5833 6.66667 18.6667 6.66667ZM12 13.3333V11C12 10.5278 12.1215 10.0938 12.3646 9.69792C12.6076 9.30208 12.9306 9 13.3333 8.79167C14.1944 8.36111 15.0694 8.03819 15.9583 7.82292C16.8472 7.60764 17.75 7.5 18.6667 7.5C19.5833 7.5 20.4861 7.60764 21.375 7.82292C22.2639 8.03819 23.1389 8.36111 24 8.79167C24.4028 9 24.7257 9.30208 24.9688 9.69792C25.2118 10.0938 25.3333 10.5278 25.3333 11V13.3333H12ZM13.6667 11.6667H23.6667V11C23.6667 10.8472 23.6285 10.7083 23.5521 10.5833C23.4757 10.4583 23.375 10.3611 23.25 10.2917C22.5 9.91667 21.7431 9.63542 20.9792 9.44792C20.2153 9.26042 19.4444 9.16667 18.6667 9.16667C17.8889 9.16667 17.1181 9.26042 16.3542 9.44792C15.5903 9.63542 14.8333 9.91667 14.0833 10.2917C13.9583 10.3611 13.8576 10.4583 13.7812 10.5833C13.7049 10.7083 13.6667 10.8472 13.6667 11V11.6667ZM18.6667 5C19.125 5 19.5174 4.83681 19.8438 4.51042C20.1701 4.18403 20.3333 3.79167 20.3333 3.33333C20.3333 2.875 20.1701 2.48264 19.8438 2.15625C19.5174 1.82986 19.125 1.66667 18.6667 1.66667C18.2083 1.66667 17.816 1.82986 17.4896 2.15625C17.1632 2.48264 17 2.875 17 3.33333C17 3.79167 17.1632 4.18403 17.4896 4.51042C17.816 4.83681 18.2083 5 18.6667 5Z" fill="#C3C6D7"/>
</svg>
