<svg preserveAspectRatio="none" width="100%" height="100%" overflow="visible" style="display: block;" viewBox="0 0 22.5 30.5" fill="none" xmlns="http://www.w3.org/2000/svg">
<g id="Container">
<path id="Icon" d="M6.5625 22.5L0 15.9375V6.5625L6.5625 0H15.9375L22.5 6.5625V15.9375L15.9375 22.5H6.5625V22.5M7.6875 16.5625L11.25 13L14.8125 16.5625L16.5625 14.8125L13 11.25L16.5625 7.6875L14.8125 5.9375L11.25 9.5L7.6875 5.9375L5.9375 7.6875L9.5 11.25L5.9375 14.8125L7.6875 16.5625V16.5625M7.625 20H14.875L20 14.875V7.625L14.875 2.5H7.625L2.5 7.625V14.875L7.625 20V20M11.25 11.25V11.25V11.25V11.25V11.25V11.25V11.25V11.25V11.25V11.25" fill="var(--fill-0, #FFB4AB)"/>
</g>
</svg>
