<svg preserveAspectRatio="none" width="100%" height="100%" overflow="visible" style="display: block;" viewBox="0 0 30.3333 15" fill="none" xmlns="http://www.w3.org/2000/svg">
<g id="Margin">
<path id="Icon" opacity="0.4" d="M21.1667 15L15.3333 11.8333V6.83333L12 5L21.1667 0L30.3333 5V11.6667H28.6667V5.91667L27 6.83333V11.8333L21.1667 15V15M21.1667 8.08333L26.875 5L21.1667 1.91667L15.4583 5L21.1667 8.08333V8.08333M21.1667 13.1042L25.3333 10.8542V7.70833L21.1667 10L17 7.70833V10.8542L21.1667 13.1042V13.1042M21.1667 8.08333V8.08333V8.08333V8.08333V8.08333V8.08333M21.1667 9.95833V9.95833V9.95833V9.95833V9.95833V9.95833V9.95833V9.95833V9.95833V9.95833M21.1667 9.95833V9.95833V9.95833V9.95833V9.95833V9.95833V9.95833V9.95833V9.95833V9.95833" fill="var(--fill-0, #C3C6D7)"/>
</g>
</svg>
