<svg preserveAspectRatio="none" width="100%" height="100%" overflow="visible" style="display: block;" viewBox="0 0 25.3333 16.6667" fill="none" xmlns="http://www.w3.org/2000/svg">
<g id="Margin">
<path id="Icon" opacity="0.4" d="M17.7917 11.2917L22.5 6.58333L21.3125 5.39583L17.7917 8.91667L16.0417 7.16667L14.8542 8.35417L17.7917 11.2917V11.2917M18.6667 16.6667C16.7361 16.1806 15.1424 15.0729 13.8854 13.3438C12.6285 11.6146 12 9.69444 12 7.58333V2.5L18.6667 0L25.3333 2.5V7.58333C25.3333 9.69444 24.7049 11.6146 23.4479 13.3438C22.191 15.0729 20.5972 16.1806 18.6667 16.6667V16.6667M18.6667 14.9167C20.1111 14.4583 21.3056 13.5417 22.25 12.1667C23.1944 10.7917 23.6667 9.26389 23.6667 7.58333V3.64583L18.6667 1.77083L13.6667 3.64583V7.58333C13.6667 9.26389 14.1389 10.7917 15.0833 12.1667C16.0278 13.5417 17.2222 14.4583 18.6667 14.9167V14.9167M18.6667 8.33333V8.33333V8.33333V8.33333V8.33333V8.33333V8.33333V8.33333V8.33333V8.33333" fill="var(--fill-0, #C3C6D7)"/>
</g>
</svg>
