<svg preserveAspectRatio="none" width="100%" height="100%" overflow="visible" style="display: block;" viewBox="0 0 32 32" fill="none" xmlns="http://www.w3.org/2000/svg">
<g id="Vector">
<path d="M5.68222 25.7502C7.19333 24.6631 8.79674 23.8034 10.4924 23.1711C12.1881 22.5385 14.024 22.2222 16 22.2222C17.976 22.2222 19.8119 22.5385 21.5076 23.1711C23.2033 23.8034 24.8067 24.6631 26.3178 25.7502C27.4917 24.5354 28.4359 23.1007 29.1502 21.4462C29.8649 19.7914 30.2222 17.976 30.2222 16C30.2222 12.0593 28.837 8.7037 26.0667 5.93333C23.2963 3.16296 19.9407 1.77778 16 1.77778C12.0593 1.77778 8.7037 3.16296 5.93333 5.93333C3.16296 8.7037 1.77778 12.0593 1.77778 16C1.77778 17.976 2.13511 19.7914 2.84978 21.4462C3.56415 23.1007 4.5083 24.5354 5.68222 25.7502ZM16 16.8889C14.5025 16.8889 13.2393 16.3744 12.2102 15.3453C11.1812 14.3163 10.6667 13.053 10.6667 11.5556C10.6667 10.0581 11.1812 8.79481 12.2102 7.76578C13.2393 6.73674 14.5025 6.22222 16 6.22222C17.4975 6.22222 18.7607 6.73674 19.7898 7.76578C20.8188 8.79481 21.3333 10.0581 21.3333 11.5556C21.3333 13.053 20.8188 14.3163 19.7898 15.3453C18.7607 16.3744 17.4975 16.8889 16 16.8889ZM16 32C13.7686 32 11.6797 31.5846 9.73333 30.7538C7.78696 29.923 6.09348 28.7874 4.65289 27.3471C3.21259 25.9065 2.07704 24.213 1.24622 22.2667C0.415407 20.3203 0 18.2314 0 16C0 13.7686 0.415407 11.6797 1.24622 9.73333C2.07704 7.78696 3.21259 6.09348 4.65289 4.65289C6.09348 3.21259 7.78696 2.07704 9.73333 1.24622C11.6797 0.415406 13.7686 0 16 0C18.2314 0 20.3203 0.415406 22.2667 1.24622C24.213 2.07704 25.9065 3.21259 27.3471 4.65289C28.7874 6.09348 29.923 7.78696 30.7538 9.73333C31.5846 11.6797 32 13.7686 32 16C32 18.2314 31.5846 20.3203 30.7538 22.2667C29.923 24.213 28.7874 25.9065 27.3471 27.3471C25.9065 28.7874 24.213 29.923 22.2667 30.7538C20.3203 31.5846 18.2314 32 16 32Z" fill="var(--fill-0, #C3C6D7)"/>
<path fill-rule="evenodd" clip-rule="evenodd" d="M5.68222 25.7502C7.19333 24.6631 8.79674 23.8034 10.4924 23.1711C12.1881 22.5385 14.024 22.2222 16 22.2222C17.976 22.2222 19.8119 22.5385 21.5076 23.1711C23.2033 23.8034 24.8067 24.6631 26.3178 25.7502C27.4917 24.5354 28.4359 23.1007 29.1502 21.4462C29.8649 19.7914 30.2222 17.976 30.2222 16C30.2222 12.0593 28.837 8.7037 26.0667 5.93333C23.2963 3.16296 19.9407 1.77778 16 1.77778C12.0593 1.77778 8.7037 3.16296 5.93333 5.93333C3.16296 8.7037 1.77778 12.0593 1.77778 16C1.77778 17.976 2.13511 19.7914 2.84978 21.4462C3.56415 23.1007 4.5083 24.5354 5.68222 25.7502ZM12.2102 15.3453C13.2393 16.3744 14.5025 16.8889 16 16.8889C17.4975 16.8889 18.7607 16.3744 19.7898 15.3453C20.8188 14.3163 21.3333 13.053 21.3333 11.5556C21.3333 10.0581 20.8188 8.79481 19.7898 7.76578C18.7607 6.73674 17.4975 6.22222 16 6.22222C14.5025 6.22222 13.2393 6.73674 12.2102 7.76578C11.1812 8.79481 10.6667 10.0581 10.6667 11.5556C10.6667 13.053 11.1812 14.3163 12.2102 15.3453Z" fill="#FFB3AD" fill-opacity="0.1"/>
<path d="M16 0.200195C18.2059 0.200195 20.2683 0.610039 22.1885 1.42969C24.1122 2.25087 25.7842 3.37244 27.2061 4.79395C28.6276 6.21575 29.7491 7.88776 30.5703 9.81152C31.39 11.7317 31.7998 13.7941 31.7998 16C31.7998 18.2059 31.39 20.2683 30.5703 22.1885C29.7491 24.1122 28.6276 25.7842 27.2061 27.2061C25.7842 28.6276 24.1122 29.7491 22.1885 30.5703C20.2683 31.39 18.2059 31.7998 16 31.7998C13.7941 31.7998 11.7317 31.39 9.81152 30.5703C7.88776 29.7491 6.21575 28.6276 4.79395 27.2061C3.37244 25.7842 2.25087 24.1122 1.42969 22.1885C0.610039 20.2683 0.200195 18.2059 0.200195 16C0.200195 13.7941 0.610039 11.7317 1.42969 9.81152C2.25087 7.88776 3.37244 6.21575 4.79395 4.79395C6.21575 3.37244 7.88776 2.25087 9.81152 1.42969C11.7317 0.610039 13.7941 0.200195 16 0.200195ZM30.0225 16C30.0225 17.9514 29.6696 19.7397 28.9668 21.3672C28.2853 22.9456 27.3902 24.3163 26.2881 25.4863C24.8054 24.4379 23.2358 23.6019 21.5771 22.9834C19.8572 22.3418 17.9975 22.0225 16 22.0225C14.0025 22.0225 12.1428 22.3418 10.4229 22.9834C8.76396 23.602 7.19377 24.4377 5.71094 25.4863C4.60902 24.3164 3.71464 22.9454 3.0332 21.3672C2.33035 19.7397 1.97754 17.9514 1.97754 16C1.97754 12.112 3.34258 8.80781 6.0752 6.0752C8.80781 3.34258 12.112 1.97754 16 1.97754C19.888 1.97754 23.1922 3.34258 25.9248 6.0752C28.6574 8.80781 30.0225 12.112 30.0225 16ZM21.1338 11.5557C21.1338 13.0018 20.6387 14.2138 19.6484 15.2041C18.6581 16.1944 17.4461 16.6885 16 16.6885C14.5539 16.6885 13.3419 16.1944 12.3516 15.2041C11.3613 14.2138 10.8662 13.0018 10.8662 11.5557C10.8662 10.1095 11.3613 8.89755 12.3516 7.90723C13.3419 6.9169 14.5538 6.42188 16 6.42188C17.4462 6.42188 18.6581 6.9169 19.6484 7.90723C20.6387 8.89755 21.1338 10.1095 21.1338 11.5557ZM30.4219 16C30.4219 12.0066 29.0161 8.60012 26.208 5.79199C23.3999 2.98387 19.9934 1.57812 16 1.57812C12.0066 1.57812 8.60012 2.98387 5.79199 5.79199C2.98387 8.60012 1.57812 12.0066 1.57812 16C1.57812 18.0006 1.93958 19.8433 2.66602 21.5254C3.3893 23.2006 4.34631 24.6564 5.53809 25.8896L5.6582 26.0137L5.79883 25.9121C7.29587 24.8351 8.88399 23.9843 10.5625 23.3584C12.2338 22.7349 14.0457 22.4219 16 22.4219C17.9543 22.4219 19.7662 22.7349 21.4375 23.3584C23.116 23.9843 24.7041 24.8351 26.2012 25.9121L26.3418 26.0137L26.4619 25.8896C27.6537 24.6564 28.6107 23.2006 29.334 21.5254C30.0604 19.8433 30.4219 18.0006 30.4219 16ZM21.5332 11.5557C21.5332 10.0069 20.9993 8.69176 19.9316 7.62402C18.8639 6.55628 17.5488 6.02246 16 6.02246C14.4512 6.02246 13.1361 6.55628 12.0684 7.62402C11.0007 8.69176 10.4668 10.0069 10.4668 11.5557C10.4668 13.1042 11.0009 14.4187 12.0684 15.4863C13.1361 16.5541 14.4512 17.0889 16 17.0889C17.5488 17.0889 18.8639 16.5541 19.9316 15.4863C20.9991 14.4187 21.5332 13.1042 21.5332 11.5557Z" stroke="var(--stroke-0, #FFB3AD)" stroke-opacity="0.1" stroke-width="0.4"/>
</g>
</svg>
