<svg preserveAspectRatio="none" width="100%" height="100%" overflow="visible" style="display: block;" viewBox="0 0 18.1729 18.1729" fill="none" xmlns="http://www.w3.org/2000/svg">
<g id="Container">
<path id="Icon" d="M16.8667 18.1729L14.4604 15.7667H2.40625V13.2C2.40625 12.6806 2.53993 12.2031 2.80729 11.7677C3.07465 11.3323 3.42986 11 3.87292 10.7708C4.56042 10.4194 5.25938 10.1368 5.96979 9.92292C6.68021 9.70903 7.40208 9.54861 8.13542 9.44167V9.44167V9.44167L0 1.30625L1.30625 0L18.1729 16.8667L16.8667 18.1729V18.1729M4.23958 13.9333H12.6271L9.87708 11.1833C9.84653 11.1833 9.82361 11.1833 9.80833 11.1833C9.79306 11.1833 9.77014 11.1833 9.73958 11.1833C8.88403 11.1833 8.03611 11.2865 7.19583 11.4927C6.35556 11.699 5.52292 12.0083 4.69792 12.4208C4.56042 12.4972 4.44965 12.6042 4.36562 12.7417C4.2816 12.8792 4.23958 13.0319 4.23958 13.2V13.9333V13.9333M15.6062 10.7708C16.0493 10.9847 16.4007 11.3094 16.6604 11.7448C16.9201 12.1802 17.0576 12.65 17.0729 13.1542V13.1542L14.0021 10.0833C14.2771 10.1903 14.5483 10.2972 14.8156 10.4042C15.083 10.5111 15.3465 10.6333 15.6062 10.7708V10.7708M11.7563 7.8375L10.4042 6.48542C10.7556 6.34792 11.0382 6.12257 11.2521 5.80937C11.466 5.49618 11.5729 5.14861 11.5729 4.76667C11.5729 4.2625 11.3934 3.8309 11.0344 3.47187C10.6753 3.11285 10.2437 2.93333 9.73958 2.93333C9.35764 2.93333 9.01007 3.04028 8.69687 3.25417C8.38368 3.46806 8.15833 3.75069 8.02083 4.10208L6.66875 2.75C7.02014 2.23056 7.46319 1.82569 7.99792 1.53542C8.53264 1.24514 9.11319 1.1 9.73958 1.1C10.7479 1.1 11.6111 1.45903 12.3292 2.17708C13.0472 2.89514 13.4062 3.75833 13.4062 4.76667C13.4062 5.39306 13.2611 5.97361 12.9708 6.50833C12.6806 7.04306 12.2757 7.48611 11.7563 7.8375V7.8375M12.6271 13.9333H4.23958V13.9333C4.23958 13.9333 4.2816 13.9333 4.36562 13.9333C4.44965 13.9333 4.56042 13.9333 4.69792 13.9333C5.11042 13.9333 5.53819 13.9333 5.98125 13.9333C6.42431 13.9333 6.94757 13.9333 7.55104 13.9333C8.15451 13.9333 8.86493 13.9333 9.68229 13.9333C10.4997 13.9333 11.4813 13.9333 12.6271 13.9333V13.9333V13.9333V13.9333V13.9333M9.2125 5.29375V5.29375V5.29375V5.29375V5.29375V5.29375V5.29375V5.29375V5.29375" fill="var(--fill-0, #8D90A0)"/>
</g>
</svg>
